<?xml version="1.0" standalone="no"?>
<!DOCTYPE svg PUBLIC "-//W3C//DTD SVG 20010904//EN"
 "http://www.w3.org/TR/2001/REC-SVG-20010904/DTD/svg10.dtd">
<svg version="1.0" xmlns="http://www.w3.org/2000/svg"
 width="1536.000000pt" height="1024.000000pt" viewBox="0 0 1536.000000 1024.000000"
 preserveAspectRatio="xMidYMid meet">

<g transform="translate(0.000000,1024.000000) scale(0.100000,-0.100000)"
fill="#000000" stroke="none">
<path d="M4288 6831 c-78 -25 -166 -112 -192 -188 -22 -64 -20 -151 4 -216 61
-162 264 -240 423 -162 112 55 171 150 172 275 0 88 -25 150 -86 211 -62 62
-111 82 -209 86 -47 1 -97 -2 -112 -6z"/>
<path d="M7100 6673 c-51 -8 -147 -47 -197 -80 -198 -131 -268 -423 -156 -653
36 -75 132 -169 213 -208 69 -34 179 -62 245 -62 107 0 266 57 338 120 l37 32
0 199 0 199 -180 0 -180 0 0 -75 0 -75 95 0 95 0 0 -79 c0 -76 -1 -81 -27 -99
-52 -35 -97 -47 -178 -47 -65 1 -91 5 -136 26 -71 33 -124 87 -158 158 -22 48
-26 69 -26 151 0 85 3 101 29 153 33 64 82 114 148 149 36 19 58 23 138 23
104 0 156 -17 213 -71 l29 -27 60 59 59 59 -42 38 c-99 89 -270 134 -419 110z"/>
<path d="M10905 6670 c-110 -23 -198 -73 -274 -156 -200 -219 -161 -574 82
-745 213 -149 510 -121 684 65 93 99 133 203 133 346 0 239 -151 430 -382 485
-68 16 -178 18 -243 5z m240 -181 c121 -45 198 -165 199 -309 0 -102 -23 -167
-85 -234 -69 -75 -129 -101 -239 -100 -105 0 -167 24 -233 92 -69 70 -91 128
-92 237 0 82 3 96 33 157 57 116 158 177 294 178 44 0 86 -7 123 -21z"/>
<path d="M3445 6661 c-70 -18 -140 -72 -172 -134 -8 -17 -18 -59 -21 -93 -9
-120 -7 -123 486 -617 505 -506 500 -502 652 -502 154 0 142 -9 643 493 494
496 493 494 485 621 -7 131 -95 221 -223 229 -115 7 -103 16 -525 -404 l-386
-384 -374 376 c-206 207 -391 384 -410 394 -43 22 -114 32 -155 21z"/>
<path d="M7760 6180 l0 -490 90 0 90 0 0 174 0 173 68 2 67 1 115 -175 114
-175 104 0 c80 0 102 3 96 13 -4 6 -59 88 -122 180 -63 93 -112 169 -111 170
2 1 25 12 51 24 68 32 122 85 148 145 18 43 21 65 18 137 -4 102 -31 164 -92
217 -90 77 -167 94 -438 94 l-198 0 0 -490z m460 308 c67 -34 93 -79 88 -151
-4 -48 -9 -62 -37 -91 -43 -45 -88 -56 -220 -56 l-111 0 0 160 0 160 118 0
c102 0 124 -3 162 -22z"/>
<path d="M8632 6318 c4 -388 6 -402 70 -495 97 -143 359 -194 543 -108 70 34
146 115 176 190 23 58 23 70 27 413 l4 352 -96 0 -96 0 0 -322 c0 -191 -4
-338 -10 -360 -24 -86 -105 -141 -210 -142 -117 -1 -195 57 -219 164 -6 25
-11 179 -11 353 l0 307 -91 0 -90 0 3 -352z"/>
<path d="M9640 6181 l0 -491 90 0 90 0 0 170 0 170 133 0 c151 0 214 13 286
59 87 56 130 140 131 257 0 99 -22 158 -85 220 -87 88 -126 97 -407 102 l-238
4 0 -491z m460 307 c66 -34 93 -79 88 -148 -5 -65 -26 -99 -83 -132 -35 -20
-57 -23 -162 -26 l-123 -4 0 166 0 166 118 0 c102 0 124 -3 162 -22z"/>
<path d="M2933 6161 c-159 -41 -237 -215 -163 -362 15 -29 144 -167 378 -401
196 -197 354 -360 351 -362 -2 -3 -162 -164 -356 -359 -288 -289 -357 -363
-378 -408 -94 -202 93 -413 306 -344 51 16 82 45 487 449 508 506 497 491 497
661 0 92 -3 106 -33 170 -30 66 -58 96 -458 492 -284 282 -439 429 -468 442
-49 24 -118 33 -163 22z"/>
<path d="M5705 6154 c-46 -14 -87 -52 -473 -437 -233 -232 -436 -442 -452
-467 -71 -111 -79 -262 -20 -384 29 -61 70 -105 451 -484 231 -229 438 -427
459 -440 49 -29 135 -39 195 -22 141 40 217 213 150 346 -18 36 -121 147 -383
411 l-358 362 353 353 c391 390 413 418 413 525 0 171 -168 290 -335 237z"/>
<path d="M6720 4515 l0 -835 535 0 535 0 0 145 0 145 -365 0 -365 0 0 190 0
190 315 0 315 0 0 150 0 150 -315 0 -315 0 0 190 0 190 360 0 360 0 0 160 0
160 -530 0 -530 0 0 -835z"/>
<path d="M8067 5343 c-4 -3 -7 -379 -7 -835 l0 -828 177 0 176 0 -5 378 c-3
207 -3 456 1 552 l6 175 254 -398 c139 -219 257 -395 261 -390 5 4 115 177
245 383 131 206 243 384 251 395 12 17 14 -59 14 -538 l0 -557 173 0 172 0 -3
835 -2 835 -182 -2 -181 -3 -242 -395 c-133 -217 -246 -395 -251 -397 -5 -1
-119 177 -254 397 l-245 399 -176 1 c-97 0 -179 -3 -182 -7z"/>
<path d="M10335 4623 c-148 -401 -286 -776 -307 -835 l-38 -108 179 0 179 0
18 53 c9 28 35 103 56 165 l40 112 318 0 318 0 54 -162 55 -163 325 -3 326 -2
21 62 c12 35 36 108 55 163 l34 100 317 0 318 0 56 -162 56 -163 177 0 c98 0
178 2 178 5 0 7 -122 347 -360 1000 -122 336 -227 622 -232 638 l-10 27 -176
-2 -176 -3 -290 -787 c-160 -433 -291 -786 -293 -785 -2 3 -52 139 -409 1114
l-169 463 -176 0 -176 0 -268 -727z m556 -8 l108 -315 -224 0 -224 0 75 218
c42 119 92 263 111 320 19 57 38 100 41 97 3 -3 54 -147 113 -320z m1401 -313
c-118 -1 -217 -1 -219 1 -2 3 158 477 213 627 3 8 54 -130 113 -305 l109 -320
-216 -3z"/>
<path d="M4322 4750 c-119 -25 -129 -33 -588 -494 -337 -339 -437 -445 -458
-487 -101 -204 120 -423 328 -324 24 12 176 157 411 393 l372 375 368 -371
c411 -416 426 -428 533 -420 139 10 232 108 232 243 0 108 -4 113 -453 565
-227 228 -433 431 -459 452 -76 58 -194 86 -286 68z"/>
</g>
</svg>
