<?xml version="1.0" encoding="utf-8"?>
<!DOCTYPE svg PUBLIC "-//W3C//DTD SVG 1.0//EN" "http://www.w3.org/TR/2001/REC-SVG-20010904/DTD/svg10.dtd">
<svg version="1.0" xmlns="http://www.w3.org/2000/svg" width="1536px" height="1024px" viewBox="0 0 1536 1024" preserveAspectRatio="xMidYMid meet">
 <g fill="#ffffff">
  <path d="M0 512 l0 -512 768 0 768 0 0 512 0 512 -768 0 -768 0 0 -512z m355.6 165.4 c4.4 -1.4 8.5 -5.2 42.4 -39.5 33.1 -33.4 37.9 -37.9 40.5 -37.9 2.7 0 7.8 4.8 41 37.9 40.8 40.7 42.7 42.2 50.8 40.7 5.6 -1 12.5 -6.3 15.7 -12 3.6 -6.2 3.8 -11.4 0.7 -17.2 -3.1 -5.9 -87 -90.5 -92.4 -93.3 -7.7 -3.9 -14.5 -5.1 -20.5 -3.7 -10.9 2.5 -13.6 4.8 -58.2 49.6 -50.5 50.7 -50.6 50.9 -45.2 62.6 2.6 5.6 8.4 11.1 13.7 13 4.6 1.7 5.8 1.7 11.5 -0.2z m420.4 -35.9 l0 -11.5 -36.5 0 -36.5 0 0 -22 0 -22 31.5 0 31.5 0 0 -12 0 -12 -31.5 0 -31.5 0 0 -22 0 -22 36 0 36 0 0 -13 0 -13 -50 0 -50 0 0 79.9 0 80 2.8 0.4 c1.5 0.2 24.2 0.5 50.5 0.6 l47.7 0.1 0 -11.5z m62 -43.5 l0 -55 3.4 0 c3.3 0 3.5 0.3 26.7 36.8 12.9 20.2 23.9 36.7 24.4 36.7 0.8 0 29.7 -44.8 45.4 -70.2 2.2 -3.6 3.1 -4.3 5.8 -4.3 l3.3 0 0.2 55.3 0.3 55.2 14.3 0.3 14.2 0.3 0 -80.6 0 -80.6 -15.7 0.3 -15.8 0.3 -24.2 39.5 -24.2 39.5 -3.8 0 c-4.3 0 -1.1 4.6 -36 -52.2 l-16.8 -27.3 -15.2 0 -15.3 0 0 80.5 0 80.5 14.5 0 14.5 0 0 -55z m199.8 38.3 l5.4 -16.3 34.7 0 34.8 0 5.4 16.5 5.4 16.5 29.9 -0.2 29.9 -0.3 5.5 -16.3 5.4 -16.2 34.6 0.2 34.5 0.3 5.5 16.3 5.4 16.2 14 0 c12.9 0 14 -0.1 13.5 -1.7 -0.4 -1.7 -51.1 -141.2 -55.7 -153.6 l-2.2 -5.8 -14.6 0.3 -14.6 0.3 -12.6 34 c-6.9 18.7 -16.5 44.6 -21.2 57.5 -4.8 12.9 -12.1 32.8 -16.3 44.3 l-7.7 20.7 -3.3 0 c-3.2 0 -3.4 -0.2 -6.2 -7.7 -1.6 -4.3 -14.6 -39.6 -28.9 -78.5 l-25.8 -70.8 -14.7 0 -14.7 0 -1.5 4.3 c-0.8 2.3 -6.8 18.4 -13.2 35.7 -6.4 17.3 -18.8 50.9 -27.5 74.5 -8.7 23.7 -16.1 43.8 -16.5 44.8 -0.7 1.6 0.2 1.7 13.6 1.5 l14.2 -0.3 5.5 -16.2z m-731.2 -8.8 c3.7 -1.8 15.6 -13.2 47.6 -45.2 48.3 -48.4 48.3 -48.4 48.3 -61.9 0 -6.1 -0.5 -8 -3.7 -14.6 -3.5 -7.1 -6.2 -9.9 -46.2 -49.6 -38.4 -38 -43 -42.2 -47.9 -44.1 -4.6 -1.6 -6.1 -1.8 -9.3 -0.9 -8.7 2.4 -16.7 10.8 -18.1 19.1 -0.4 2.6 0.2 5.1 2.1 9.4 2.3 5 7.7 10.8 38.2 41.3 32.7 32.9 35.4 35.8 35.4 39 0 3.2 -2.7 6.1 -36 39.5 -36.8 37 -40 40.8 -40 48 0 3.9 3.4 11.2 6.8 14.9 3.2 3.4 11.6 7.6 15.3 7.6 1.4 0 4.7 -1.1 7.5 -2.5z m279.9 0.6 c7.8 -3.5 14.4 -12.6 14.5 -19.9 0 -7.3 -3.8 -11.9 -40.5 -48.9 -33.1 -33.3 -35.5 -36 -35.5 -39.2 0 -3.3 2.4 -5.9 35.9 -39.6 38.7 -38.8 40.9 -41.5 39.8 -49.7 -0.8 -5.8 -5.3 -12.6 -10.5 -15.9 -7 -4.4 -10.9 -5.2 -16.8 -3.3 -4.4 1.5 -9.4 6.2 -48.2 44.8 -38.3 38.1 -43.7 43.9 -46.5 49.6 -2.7 5.5 -3.2 7.5 -3.2 14 0 6.4 0.5 8.6 3.2 14.5 3.1 6.6 5.8 9.5 45.5 48.8 43.7 43.3 47.7 46.7 55.3 46.7 1.7 0 4.8 -0.9 7 -1.9z m-138.9 -140 c3 -1.1 7.2 -3.2 9.3 -4.8 2 -1.5 22.6 -21.9 45.7 -45.3 44 -44.6 46.4 -47.4 46.4 -55.8 0 -6 -5.3 -14 -12 -17.9 -6.3 -3.9 -11.3 -4.2 -16.8 -1.4 -2 1.1 -20.6 18.9 -41.2 39.5 -33.4 33.5 -37.8 37.6 -40.6 37.6 -2.8 0 -7.2 -4.1 -40.5 -37.8 -38 -38.5 -41.4 -41.4 -48.3 -41.4 -5 0 -13.2 4.7 -16.6 9.4 -5.9 8.1 -6.1 15.3 -0.7 23.3 1.1 1.7 21.4 22.5 45.1 46.3 43.3 43.5 47.4 47.1 56.1 49.3 5.1 1.2 8.3 1 14.1 -1z m281.6 -35.5 c7.4 -1.6 16.9 -6 22.3 -10.3 l3.5 -2.8 -0.2 -17 -0.3 -17 -15.2 -0.3 -15.3 -0.3 0 4.6 0 4.5 9.4 0 c5.2 0 9.7 0.4 10 0.8 0.3 0.5 0.2 5.7 -0.1 11.7 l-0.6 10.8 -5.6 2.6 c-5 2.3 -6.9 2.6 -16.6 2.6 -10 0 -11.5 -0.3 -16.6 -2.7 -7 -3.5 -12.2 -8.7 -15.7 -15.7 -2.5 -5.2 -2.7 -6.5 -2.7 -17.6 0 -11.6 0.1 -12.3 3.3 -18.7 3.9 -8 9.3 -12.9 17.1 -15.9 4.7 -1.7 7.3 -2 16.1 -1.7 9.6 0.3 11 0.6 16.4 3.6 l6 3.2 2.8 -2.7 c2.7 -2.6 2.8 -2.8 1.1 -4.5 -3.5 -3.4 -15.1 -8.6 -22.2 -9.8 -24.3 -4.4 -48.5 13.8 -53.2 40 -4 22.6 13.2 46.5 37.9 52.4 7.4 1.8 10.3 1.9 18.4 0.2z m183.8 -0.2 c15.2 -3.5 25.1 -13.8 27.9 -28.9 0.6 -3.4 1.1 -18.1 1.1 -34.7 l0 -28.8 -6.5 0 -6.5 0 0 32.4 c0 34.7 -0.4 38.2 -5.3 43.4 -5.3 5.7 -16.5 8.3 -27.2 6.3 -7.6 -1.4 -12.8 -5.1 -15.7 -11 -2.2 -4.5 -2.3 -5.6 -2.6 -37.8 l-0.3 -33.3 -6 0 -6 0 0.3 32.8 c0.3 31.7 0.4 32.9 2.7 38.6 4.2 10.5 13.6 18 26.6 21.2 6.8 1.7 9.9 1.6 17.5 -0.2z m203.5 -1.5 c23.9 -8 38.5 -33.6 31.9 -56 -2.7 -8.9 -6.3 -15 -12.8 -21.4 -19.1 -18.9 -47.1 -19 -67.2 -0.3 -7.6 7.2 -12.6 16.5 -14.4 27.1 -3.2 18.1 8.9 39.3 27.2 48.1 12.4 5.9 22.6 6.7 35.3 2.5z m-325.7 -16.2 l0.2 -16.7 10 0 9.9 0 11.2 17 11.1 17 5.5 0 c4 0 5.2 -0.3 4.7 -1.2 -0.4 -0.7 -4.9 -7.5 -10.1 -15 -7.4 -10.9 -9.3 -14.4 -9.3 -17.3 0 -2.1 0.5 -3.5 1.3 -3.5 2.2 0 9.1 -4.1 12.9 -7.7 16 -15.4 6.4 -40.5 -17.5 -45.8 -5.4 -1.2 -11.4 -1.5 -24.2 -1.3 l-17 0.3 -0.3 45.2 -0.2 45.2 4.2 0.4 c7.8 0.7 7.3 2 7.6 -16.6z m188 0.1 l0.2 -16.6 15.8 -0.4 c15.5 -0.3 15.9 -0.4 22.4 -3.6 7.5 -3.7 11 -7.3 14.6 -15.1 2 -4.4 2.4 -6.4 2 -11.5 -1.1 -13.3 -10.8 -23.3 -25.6 -26.5 -2.9 -0.6 -13.1 -1.1 -22.6 -1.1 -14.9 0 -17.5 0.2 -18 1.6 -0.9 2.2 -0.8 88.9 0.1 89.8 0.4 0.4 3 0.6 5.8 0.4 l5 -0.3 0.3 -16.7z m-529.1 -40.4 c8.1 -3.9 15.2 -12.9 16.8 -21.6 1.7 -8.9 -6.2 -21.5 -16.6 -26.7 -7.8 -3.9 -14.2 -4.1 -21.4 -0.7 -5.2 2.4 -12.2 9.2 -14.9 14.5 -7 13.5 1.7 30.4 18.7 36.2 6.1 2.1 10 1.7 17.4 -1.7z"/>
  <path d="M1052 594.3 c0 -1.6 5 -17.3 11.2 -35 l11.2 -32.3 3.2 0 c3.7 0 2.5 -2.9 13.8 30.5 4.6 13.8 9.1 27 10 29.4 0.9 2.4 1.6 5.6 1.6 7.2 l0 2.9 -25.5 0 -25.5 0 0 -2.7z"/>
  <path d="M1204 593.8 c0 -1.8 2.5 -10.3 5.5 -18.8 2.9 -8.5 7.8 -22.6 10.7 -31.2 l5.3 -15.8 3.5 0 3.5 0 10.8 31.8 c5.9 17.4 10.7 32.9 10.7 34.5 l0 2.7 -25 0 -25 0 0 -3.2z"/>
  <path d="M1091.1 442 c-10.6 -2.3 -19.9 -11.1 -23.3 -22.3 -2.9 -9.5 -2.2 -22.9 1.5 -30.9 3.1 -6.8 8.7 -12.7 15.3 -15.8 5.9 -2.9 21.4 -4 29.1 -2.1 9.8 2.5 19.2 11.5 22.4 21.6 2 6.2 1.7 21.9 -0.5 28.8 -2.4 7.4 -8.8 14.7 -16.1 18.2 -4.3 2.1 -7.1 2.7 -14.7 3 -5.1 0.2 -11.3 0 -13.7 -0.5z"/>
  <path d="M791 388.9 l0 -19.1 15.8 0.4 c13.7 0.3 16.2 0.6 19.2 2.4 6 3.5 8 7.5 8 16.4 0 9.3 -2.1 13.3 -9 16.8 -4 2 -5.9 2.2 -19.2 2.2 l-14.8 0 0 -19.1z"/>
  <path d="M979 389.4 l0 -19.6 15.8 0.4 c13.5 0.3 16.2 0.6 19.1 2.3 6 3.5 7.6 6.7 7.9 15.8 0.3 7.3 0.1 8.6 -2 11.6 -5.2 7.6 -9.6 9 -28 9.1 l-12.8 0 0 -19.6z"/>
 </g>
 <g fill="#005b98">
  <path d="M341.1 680.6 c-8.9 -3.2 -16.1 -13.5 -16.1 -23.1 0 -10.4 1.3 -11.9 47.6 -58.5 46 -46.2 47.7 -47.6 60.2 -50 4.7 -1 7.6 -1 11.9 -0.1 13 2.6 13.2 2.7 59.7 49.7 29 29.4 43.9 45.1 45.5 48.3 3.5 6.6 3.3 15.1 -0.4 22 -4.6 8.4 -12.4 13.1 -21.7 13.1 -10.2 0 -12 -1.5 -52.3 -41.9 l-37 -37.2 -37.5 38 c-33.9 34.3 -38 38.1 -42.4 39.5 -5.8 1.9 -12.7 2 -17.5 0.2z"/>
  <path d="M806.4 656.1 c-0.2 -0.2 -0.4 -37.9 -0.4 -83.8 l0 -83.3 18.3 0 18.2 0 16.8 27.3 c28.8 46.9 32.2 52.2 33.2 51.9 0.6 -0.2 11.8 -18 25 -39.5 l24 -39.2 18.8 -0.3 18.7 -0.2 -0.2 83.6 -0.3 83.6 -17.2 0.2 c-9.4 0 -17.1 -0.1 -17.1 -0.4 0 -0.3 0 -25.5 -0.1 -56 l-0.1 -55.4 -5.8 8.9 c-3.2 5 -14.5 22.8 -25.1 39.8 -10.7 16.9 -19.9 30.7 -20.6 30.7 -0.6 0 -12.4 -17.6 -26.1 -39.2 l-24.9 -39.2 -0.5 55.5 -0.5 55.4 -16.8 0 c-9.3 0 -17.1 -0.2 -17.3 -0.4z"/>
  <path d="M999.6 654.6 c0.4 -2 20.5 -57.2 44.4 -121.6 7.3 -19.5 13.9 -37.4 14.7 -39.7 l1.5 -4.3 17.7 0 17.7 0 25.8 70.8 c33.3 90.9 31.7 86.7 32.6 85.1 0.4 -0.8 7.6 -20.1 16 -42.9 8.4 -22.8 21.2 -57.5 28.4 -77 l13.2 -35.5 17.6 -0.3 c16 -0.2 17.6 -0.1 18.3 1.5 3.2 8.2 59.5 163.8 59.5 164.6 0 0.9 -4.9 1.1 -17.9 0.9 l-18 -0.3 -5.4 -16.2 -5.4 -16.2 -31.5 -0.3 -31.6 -0.2 -5.2 15.7 c-2.9 8.7 -5.5 16.1 -5.9 16.5 -0.4 0.4 -15.2 0.8 -33.1 0.8 l-32.4 0.1 -5.5 -16.5 -5.4 -16.6 -31.8 0 -31.7 0 -5.4 16.3 -5.5 16.2 -18 0.5 c-17.5 0.5 -18.1 0.4 -17.7 -1.4z m98.8 -64.8 c-0.9 -2.4 -5.6 -16.2 -10.6 -30.8 -4.9 -14.6 -9.3 -27.1 -9.7 -27.8 -0.5 -0.8 -2.6 4 -5.3 12 -2.5 7.3 -7.6 21.7 -11.2 32.1 l-6.5 18.7 22.4 0 22.4 0 -1.5 -4.2z m141.8 -27.3 c-5.9 -17.3 -10.9 -31.5 -11.2 -31.5 -0.3 0 -2.9 7.1 -5.8 15.8 -2.9 8.6 -7.8 22.7 -10.7 31.2 -3 8.5 -5.5 15.6 -5.5 15.8 0 0.1 9.9 0.2 22 0.2 l21.9 0 -10.7 -31.5z"/>
  <path d="M674.8 655.3 l-2.8 -0.4 0 -83 0 -82.9 53 0 53 0 0 16 0 16 -36 0 -36 0 0 19 0 19 31.5 0 31.5 0 0 15 0 15 -31.5 0 -31.5 0 0 19 0 19 36.5 0 36.5 0 0 14.5 0 14.5 -50.7 -0.1 c-28 -0.1 -52 -0.4 -53.5 -0.6z"/>
  <path d="M288.5 630.6 c-9.3 -4.4 -14.5 -12.6 -14.5 -23.1 0 -10.7 0.8 -11.6 40.3 -51.2 l36.1 -36.3 -35.6 -35.8 c-39.3 -39.4 -40.8 -41.2 -40.8 -52.3 0 -10.8 8.1 -21.2 18.7 -23.8 6 -1.6 8.5 -1.4 14.8 1 5.1 1.9 9.3 5.7 48.1 44.1 40 39.7 42.7 42.5 46.2 49.6 3.5 7.2 3.7 8.1 3.7 17.6 0 17 1.5 15 -48.3 64.9 -32 32 -43.9 43.4 -47.6 45.2 -6.6 3.3 -14.3 3.4 -21.1 0.1z"/>
  <path d="M568.5 630.6 c-3.8 -1.9 -14.7 -12.1 -47.3 -44.3 -39.7 -39.3 -42.4 -42.2 -45.5 -48.8 -3 -6.5 -3.2 -7.8 -3.2 -17.5 0 -17.6 -1.3 -15.8 49.7 -66.6 40.5 -40.3 43.7 -43.3 48.7 -44.9 16.3 -5.3 33.1 6.8 33.1 23.9 0 10.7 -0.9 11.8 -40.3 51.4 l-36.2 36.2 12 12.2 c6.6 6.6 22.6 22.8 35.7 35.8 26.7 26.8 28.8 29.8 28.8 40.2 0 7.4 -2.2 12.9 -7.1 17.7 -7.3 7.4 -18.8 9.3 -28.4 4.7z"/>
  <path d="M430.5 492.1 c-8.8 -2.2 -12.8 -5.7 -57.1 -50.3 -29.4 -29.6 -44.7 -45.6 -45.9 -48.3 -2.3 -5 -3.1 -14.2 -1.6 -18.8 4.5 -13.7 21 -21.1 33.6 -15.3 2.7 1.3 16.3 14.4 41.4 39.8 l37.5 37.9 38 -37.9 c21 -20.9 39.7 -38.8 41.6 -39.8 2.2 -1.1 5.8 -1.8 9.5 -1.8 13.7 0 24.8 11.1 24.7 24.8 0 11.2 -0.4 11.9 -46.6 58.6 -23.1 23.4 -43.7 43.8 -45.7 45.3 -7.7 5.7 -19.9 8.1 -29.4 5.8z"/>
  <path d="M707.8 455.4 c-27.5 -6.6 -43.8 -33.4 -37.3 -61.2 6.5 -27.6 32.9 -43.4 61.5 -36.6 7.3 1.7 17.2 6.9 21.2 11.1 l2.8 2.9 -6 5.9 -6 5.9 -2.7 -2.6 c-5 -4.7 -11.2 -7.1 -19.3 -7.6 -13.8 -0.8 -24.2 5.3 -30.2 17.6 -3 6 -3.3 7.5 -3.3 15.7 0 7.8 0.4 9.8 2.7 14.6 3.5 7 8.7 12.2 15.7 15.6 7.7 3.8 19.1 3.8 27.3 0.1 l5.6 -2.6 0.4 -8.2 c0.2 -4.5 0.1 -8.4 -0.1 -8.6 -0.2 -0.2 -4.6 -0.4 -9.8 -0.4 l-9.3 0 0 -7.5 0 -7.5 18.3 0.2 18.2 0.3 0.3 20 0.2 20 -3.5 2.8 c-12.2 9.7 -31.3 13.9 -46.7 10.1z"/>
  <path d="M892.5 455.6 c-13 -3.2 -22.4 -10.7 -26.6 -21.2 -2.3 -5.8 -2.4 -6.7 -2.7 -41.7 l-0.3 -35.7 9 0 9 0 0.3 33.2 c0.3 32.3 0.4 33.4 2.6 37.9 1.3 2.6 3.9 5.8 6 7.3 9 6.2 23.9 5 30.9 -2.6 4.9 -5.2 5.3 -8.7 5.3 -43.4 l0 -32.4 9.5 0 9.5 0 0 31.8 c0 39.6 -0.9 44.9 -9 55.2 -8.1 10.2 -27.9 15.5 -43.5 11.6z"/>
  <path d="M1090.5 455.9 c-2.7 -0.6 -8.3 -2.6 -12.3 -4.5 -31 -14.9 -37.7 -57.8 -12.8 -81.2 7.1 -6.6 15.9 -11.3 24.4 -13.1 27.9 -5.8 53.9 8.8 61.6 34.8 1.8 6.2 2.1 20.2 0.5 27.1 -3.6 15.7 -16.7 29.6 -32.8 35 -7.5 2.5 -21.2 3.4 -28.6 1.9z m26.2 -19.5 c7 -3.4 13.5 -10.8 15.8 -18 2 -6.5 2.3 -17.4 0.5 -23.1 -3.1 -9.9 -12.5 -18.9 -22.4 -21.4 -6.6 -1.7 -17.4 -0.7 -23.2 2.1 -23.2 11.3 -24.4 46.4 -1.9 59.6 8.6 5 21.8 5.4 31.2 0.8z"/>
  <path d="M780.2 454.3 l-4.2 -0.4 0.2 -48.2 0.3 -48.2 20 -0.3 c29.2 -0.4 38.6 2.3 47.2 13.6 8.6 11.4 7.5 29.9 -2.5 39.5 -3.8 3.6 -10.7 7.7 -12.9 7.7 -0.7 0 -1.3 0.2 -1.3 0.5 0 0.8 21 31.7 23.3 34.3 l2 2.2 -11 0 -11.1 0 -11.1 -17 -11.2 -17 -6.9 0 -7 0 -0.2 16.8 -0.3 16.7 -4.5 0.1 c-2.5 0.1 -6.4 -0.1 -8.8 -0.3z m41.8 -51.5 c11.7 -5.9 12.2 -20.7 1 -27.2 -2.9 -1.8 -5.6 -2.2 -16.2 -2.5 l-12.8 -0.3 0 16.1 0 16.1 11.8 0 c10.2 0 12.4 -0.3 16.2 -2.2z"/>
  <path d="M964.7 454.4 c-0.9 -0.9 -0.9 -93.6 -0.1 -95.8 0.5 -1.4 3.3 -1.6 21 -1.6 21.5 0 28.1 0.8 35.5 4.5 4.8 2.5 10.8 8.4 13.3 13.2 4.4 8.6 3.9 21.2 -1.1 30.5 -3.2 6 -6.9 9.2 -14.3 12.7 -5.1 2.4 -6.8 2.6 -21.2 2.9 l-15.8 0.4 -0.2 16.6 -0.3 16.7 -8 0.3 c-4.5 0.1 -8.4 0 -8.8 -0.4z m40.7 -49.4 c4.8 -1.1 8.3 -3.6 11.4 -8.1 2 -2.8 2.3 -4.3 2 -8.7 -0.5 -6 -2.8 -9.7 -7.9 -12.7 -2.8 -1.7 -5.6 -2.1 -16.1 -2.4 l-12.8 -0.3 0 16.6 0 16.6 9.8 0 c5.3 0 11.5 -0.5 13.6 -1z"/>
  <path d="M429.3 399.2 c-10.6 -3.8 -17.9 -11.2 -20.4 -20.7 -1.8 -6.5 -0.6 -17.6 2.4 -22.6 8.9 -15.2 25.8 -20.5 41.2 -13 19 9.4 23.2 32.3 8.9 48.1 -7.6 8.4 -21.6 12 -32.1 8.2z"/>
 </g>
</svg>